<?xml version="1.0" encoding="UTF-8" standalone="no"?> 
<svg width="100" height="100" viewBox="0 0 512 512" fill="none" xmlns="http://www.w3.org/2000/svg">
<path d="M302.439 114.588L285.947 252.022C285.888 252.515 285.647 252.968 285.271 253.294C284.896 253.619 284.413 253.793 283.916 253.782C283.42 253.771 282.945 253.575 282.585 253.233C282.225 252.891 282.004 252.427 281.967 251.932C279.167 212.749 273.162 128.655 270.451 90.7138C270.077 85.4797 267.734 80.5817 263.893 77.0062C260.052 73.4308 254.999 71.4436 249.751 71.4448H245.961C240.585 71.4448 235.418 73.5309 231.549 77.2641C227.681 80.9972 225.411 86.0859 225.219 91.4588L219.412 254C219.395 254.494 219.196 254.964 218.853 255.319C218.51 255.675 218.047 255.891 217.554 255.925C217.061 255.96 216.573 255.811 216.184 255.507C215.794 255.204 215.531 254.766 215.444 254.28L189.76 110.131C188.905 105.333 186.389 100.99 182.653 97.8607C178.917 94.7318 174.199 93.017 169.326 93.0168V93.0168C166.439 93.0162 163.583 93.6183 160.941 94.7846C158.299 95.9508 155.93 97.6556 153.985 99.7898C152.04 101.924 150.562 104.441 149.645 107.179C148.728 109.917 148.392 112.817 148.66 115.692C153.613 168.861 165.601 297.836 166.24 307.725L108.4 276.174C103.071 273.267 96.8874 272.329 90.9355 273.525C84.9835 274.721 79.6428 277.975 75.8502 282.716V282.716C71.7316 287.864 69.7369 294.393 70.2746 300.964C70.8122 307.535 73.8415 313.652 78.7422 318.063L128.067 362.444C131.006 365.087 133.761 367.927 136.314 370.944L143.105 378.969C157.374 396.015 169.639 414.643 179.658 434.487C187.921 450.521 200.424 463.982 215.807 473.403C231.19 482.824 248.862 487.845 266.9 487.918L270.9 487.986C283.91 488.207 296.831 485.808 308.894 480.932C320.957 476.055 331.916 468.8 341.116 459.6L341.731 458.985C355.299 445.453 364.674 428.294 368.731 409.566L415.439 193.538C416.713 187.65 415.767 181.5 412.784 176.266C409.801 171.033 404.991 167.085 399.276 165.181V165.181C393.274 163.18 386.731 163.584 381.02 166.308C375.31 169.032 370.879 173.864 368.657 179.788L337.886 261.846C337.719 262.295 337.396 262.668 336.976 262.899C336.556 263.129 336.067 263.202 335.599 263.103C335.13 263.003 334.713 262.739 334.422 262.358C334.132 261.977 333.988 261.505 334.016 261.027C335.827 231.76 342.932 155.405 346.333 119.455C346.828 114.228 345.323 109.007 342.122 104.845C338.921 100.683 334.261 97.8891 329.082 97.0258L326.454 96.5878C323.687 96.1275 320.856 96.2328 318.131 96.8973C315.406 97.5619 312.843 98.7718 310.599 100.454C308.354 102.136 306.474 104.256 305.072 106.685C303.669 109.115 302.774 111.803 302.439 114.588V114.588Z" fill="#F6BB92"/>
<path d="M269.144 440.1C267.022 440.1 264.987 439.257 263.487 437.757C261.986 436.257 261.144 434.222 261.144 432.1C261.188 414.061 256.244 396.362 246.857 380.958C237.47 365.554 224.006 353.046 207.954 344.817C206.067 343.845 204.645 342.163 203.998 340.142C203.352 338.122 203.535 335.927 204.507 334.04C205.479 332.154 207.16 330.732 209.181 330.085C211.202 329.439 213.397 329.622 215.284 330.594C233.952 340.164 249.61 354.71 260.527 372.624C271.444 390.538 277.195 411.122 277.144 432.1C277.144 434.222 276.301 436.257 274.8 437.757C273.3 439.257 271.265 440.1 269.144 440.1Z" fill="#E0AA85"/>
<path d="M319.418 331.115C319.195 331.115 318.971 331.105 318.745 331.086L232.458 323.896C231.404 323.819 230.375 323.533 229.432 323.056C228.488 322.579 227.649 321.919 226.962 321.116C226.275 320.312 225.754 319.38 225.429 318.374C225.105 317.368 224.983 316.307 225.071 315.253C225.158 314.2 225.454 313.174 225.941 312.235C226.427 311.297 227.095 310.464 227.906 309.785C228.716 309.106 229.653 308.595 230.662 308.28C231.672 307.965 232.733 307.854 233.786 307.952L320.073 315.142C322.131 315.312 324.043 316.27 325.411 317.817C326.778 319.364 327.494 321.38 327.41 323.443C327.325 325.506 326.446 327.456 324.957 328.886C323.467 330.316 321.483 331.115 319.418 331.115V331.115Z" fill="#E0AA85"/>
<path d="M483.989 144C482.765 144.002 481.558 143.723 480.459 143.184C479.361 142.645 478.401 141.861 477.654 140.893C444.499 97.8779 399.538 65.4451 348.261 47.553C347.261 47.2132 346.338 46.6788 345.546 45.9807C344.754 45.2826 344.108 44.4346 343.645 43.4855C343.182 42.5364 342.911 41.5051 342.849 40.451C342.787 39.397 342.933 38.341 343.281 37.3439C343.629 36.3469 344.171 35.4286 344.875 34.6419C345.579 33.8553 346.433 33.2158 347.385 32.7605C348.338 32.3052 349.371 32.043 350.426 31.989C351.481 31.935 352.535 32.0903 353.53 32.446C407.735 51.3566 455.263 85.6384 490.313 131.107C491.227 132.29 491.792 133.705 491.943 135.193C492.093 136.681 491.824 138.181 491.166 139.523C490.507 140.865 489.486 141.996 488.217 142.788C486.949 143.579 485.484 143.999 483.989 144Z" fill="#FFC864"/>
<path d="M312.01 37.4419C311.487 37.4419 310.966 37.391 310.454 37.2899C282.275 31.7676 253.421 30.5601 224.88 33.7089C222.794 33.898 220.717 33.2616 219.095 31.9363C217.473 30.611 216.436 28.7025 216.206 26.6208C215.976 24.539 216.571 22.4501 217.864 20.8025C219.157 19.1549 221.045 18.0801 223.122 17.8089C253.281 14.481 283.772 15.7576 313.548 21.5949C315.498 21.978 317.235 23.0731 318.422 24.667C319.609 26.2609 320.16 28.2396 319.968 30.2176C319.776 32.1956 318.855 34.0313 317.384 35.3674C315.913 36.7034 313.997 37.444 312.01 37.4449V37.4419Z" fill="#FFC864"/>
<path d="M28.0124 144C26.5172 143.999 25.0522 143.579 23.7836 142.788C22.515 141.996 21.4935 140.865 20.8351 139.523C20.1766 138.181 19.9076 136.681 20.0584 135.193C20.2092 133.705 20.7739 132.29 21.6884 131.107C52.1299 91.7528 91.9527 60.6592 137.514 40.6701C139.458 39.82 141.661 39.7771 143.636 40.5507C145.612 41.3243 147.199 42.851 148.049 44.7951C148.899 46.7391 148.942 48.9412 148.169 50.9169C147.395 52.8926 145.868 54.48 143.924 55.3301C100.82 74.242 63.1457 103.66 34.3474 140.893C33.6 141.862 32.64 142.645 31.5416 143.184C30.4433 143.723 29.2358 144.002 28.0124 144V144Z" fill="#FFC864"/>
<path d="M47.7608 191.737C46.314 191.736 44.8947 191.342 43.6539 190.598C42.4131 189.854 41.3972 188.788 40.7144 187.512C40.0317 186.237 39.7076 184.8 39.7767 183.355C39.8458 181.91 40.3055 180.51 41.1068 179.306C55.9655 156.956 74.2286 137.069 95.2338 120.364C96.0549 119.701 96.999 119.207 98.0119 118.91C99.0248 118.613 100.086 118.52 101.135 118.635C102.185 118.751 103.2 119.073 104.125 119.583C105.049 120.092 105.863 120.78 106.52 121.606C107.177 122.432 107.665 123.379 107.954 124.394C108.243 125.409 108.329 126.471 108.206 127.52C108.083 128.568 107.754 129.581 107.237 130.502C106.721 131.422 106.027 132.232 105.197 132.883C85.4958 148.551 68.3664 167.205 54.4298 188.167C53.6994 189.266 52.7081 190.168 51.5444 190.791C50.3807 191.414 49.0808 191.739 47.7608 191.737V191.737Z" fill="#FFC864"/>
<path d="M455.922 183.147C454.658 183.149 453.413 182.851 452.287 182.278C451.161 181.706 450.187 180.875 449.445 179.853C432.588 156.649 411.723 136.641 387.834 120.771C386.067 119.596 384.839 117.767 384.421 115.687C384.002 113.607 384.427 111.445 385.603 109.679C386.778 107.912 388.606 106.684 390.686 106.266C392.767 105.848 394.928 106.273 396.695 107.448C422.165 124.369 444.411 145.701 462.385 170.44C463.253 171.633 463.774 173.043 463.891 174.513C464.008 175.984 463.715 177.458 463.046 178.774C462.378 180.089 461.358 181.193 460.101 181.965C458.843 182.737 457.397 183.146 455.922 183.147V183.147Z" fill="#FFC864"/>
</svg>
